<?xml version="1.0" encoding="UTF-8" standalone="no"?>
<svg width="348px" height="363px" viewBox="0 0 348 363" version="1.1" xmlns="http://www.w3.org/2000/svg" xmlns:xlink="http://www.w3.org/1999/xlink">
    <!-- Generator: Sketch 3.7.2 (28276) - http://www.bohemiancoding.com/sketch -->
    <title>Group</title>
    <desc>Created with Sketch.</desc>
    <defs>
        <polygon id="path-1" points="0.907036596 352.229662 351.093627 352.229662 351.093627 0.636886154 0.907036596 0.636886154"></polygon>
    </defs>
    <g id="TIL" stroke="none" stroke-width="1" fill="none" fill-rule="evenodd">
        <g id="icelab-til-copy-3" transform="translate(0.000000, -66.000000)">
            <g id="Group" transform="translate(-5.000000, 66.000000)">
                <g id="Group-3">
                    <mask id="mask-2" fill="white">
                        <use xlink:href="#path-1"></use>
                    </mask>
                    <g id="Clip-2"></g>
                </g>
                <path d="M176.161503,332.187429 C89.9881754,332.187429 20.1325714,253.631989 20.1325714,167.46234 C20.1325714,81.291188 89.9881754,20.1325714 176.161503,20.1325714 C262.328819,20.1325714 332.187429,81.291188 332.187429,167.46234 C332.187429,253.631989 262.328819,332.187429 176.161503,332.187429 Z" id="Fill-4" fill="#A5D9E5"></path>
                <path d="M325.63661,127.879884 C320.18815,127.879884 315.757601,121.261104 315.538938,115.762286 L315.496714,115.762286 C315.273528,121.261104 310.84147,127.879884 305.396027,127.879884 C299.947567,127.879884 295.517017,121.261104 295.293831,115.762286 L294.888175,115.762286 C294.668005,121.261104 290.237455,127.879884 284.788996,127.879884 C279.340536,127.879884 274.909987,121.261104 274.689816,115.762286 L274.646084,115.762286 C274.427422,121.261104 269.995364,127.879884 264.545397,127.879884 C259.098445,127.879884 254.667896,121.261104 254.446217,115.762286 L254.405501,115.762286 C254.182315,121.261104 249.751765,127.879884 244.301798,127.879884 C238.856354,127.879884 234.424297,121.261104 234.205634,115.762286 L233.801486,115.762286 C233.579808,121.261104 229.147751,127.879884 223.700799,127.879884 C218.249323,127.879884 213.823298,121.261104 213.60162,115.762286 L213.556379,115.762286 C213.334701,121.261104 208.901136,127.879884 203.4572,127.879884 C198.00874,127.879884 193.578191,121.261104 193.358021,115.762286 L193.314288,115.762286 C193.097134,121.261104 188.662061,127.879884 183.213601,127.879884 C177.765141,127.879884 173.3361,121.261104 173.115929,115.762286 L172.710273,115.762286 C172.487087,121.261104 168.056538,127.879884 162.609586,127.879884 C157.161126,127.879884 152.730577,121.261104 152.510407,115.762286 L152.468182,115.762286 C152.246504,121.261104 147.815955,127.879884 142.367495,127.879884 C136.917527,127.879884 132.488486,121.261104 132.266808,115.762286 L132.224583,115.762286 C132.004413,121.261104 127.573864,127.879884 122.125404,127.879884 C116.676944,127.879884 112.244887,121.261104 112.023209,115.762286 L111.620568,115.762286 C111.400398,121.261104 106.969849,127.879884 101.519881,127.879884 C96.0699134,127.879884 91.6408721,121.261104 91.4191938,115.762286 L91.3769694,115.762286 C91.1567992,121.261104 86.7262498,127.879884 81.2777901,127.879884 C75.8293304,127.879884 71.3987811,121.261104 71.1771028,115.762286 L71.1348784,115.762286 C70.9132001,121.261104 66.4826508,127.879884 61.034191,127.879884 C55.5857313,127.879884 51.155182,121.261104 50.9350117,115.762286 L50.5293556,115.762286 C50.3091853,121.261104 45.878636,127.879884 40.4301763,127.879884 C34.9817166,127.879884 30.5511672,121.261104 30.330997,115.762286 L30.2887726,115.762286 C30.0670943,121.261104 25.636545,127.879884 20.1880852,127.879884 C15.1075813,127.879884 43.5547843,279.56768 43.5547843,279.56768 L179.728577,352.32 L301.603368,291.682264 L332.187429,234.041143 L332.187429,125.416872 C330.421543,126.949849 328.136899,127.879884 325.63661,127.879884 L325.63661,127.879884 Z M10.0662857,115.762286 L10.1054941,116.108977 C10.096446,115.99291 10.091922,115.878352 10.0873979,115.762286 L10.0662857,115.762286 L10.0662857,115.762286 Z" id="Fill-5" fill="#6BC2DF"></path>
                <path d="M176.158479,25.5853252 C92.7398353,25.5853252 24.8693353,93.1310097 24.8693353,176.15924 C24.8693353,259.18747 92.7398353,326.734675 176.158479,326.734675 C259.578644,326.734675 327.447623,259.18747 327.447623,176.15924 C327.447623,93.1310097 259.578644,25.5853252 176.158479,25.5853252 L176.158479,25.5853252 Z M176.158387,362.386286 C77.8817215,362.386286 0,282.273837 0,181.192313 C0,80.1058135 77.8817215,0 176.158387,0 C274.435053,0 352.32,80.1058135 352.32,181.192313 C352.32,282.273837 274.435053,362.386286 176.158387,362.386286 L176.158387,362.386286 Z" id="Fill-6" fill="#FFFFFF"></path>
                <path d="M94.3499992,126 C94.3499992,126 85.2796648,156.41637 86.0459569,162.501471 C86.8168285,168.582005 99.1156646,213.039158 104.8827,215.72403 C104.8827,215.72403 114.107208,212.276618 116.415244,231.81804 C118.720226,251.368594 146.010606,270.91306 146.010606,270.91306 C146.010606,270.91306 162.537787,279.34514 164.842769,288.544327 C167.150805,297.740469 185.216676,297.356916 186.367641,296.973363 C187.520132,296.58981 224.914272,232.276173 236.062143,230.740438 C247.208488,229.206226 250.667488,220.00704 250.667488,220.00704 L267.193143,198.54633 L262.751091,150.612846 L244.46388,126.004566 L94.3499992,126" id="Fill-7" fill="#2B93BF"></path>
                <g id="Group-11" transform="translate(95.000000, 56.000000)" fill="#FFFFFF">
                    <path d="M21.5282782,54.5615405 C21.5282782,54.5615405 26.9852,30.9194855 30.0192117,30.009231 C33.0501525,29.1005116 61.8517675,14.247861 63.9737331,0 C63.9737331,0 64.0858196,17.2794841 71.910376,18.7960631 C79.7426096,20.3111072 84.2905563,16.9755543 84.2905563,16.9755543 C84.2905563,16.9755543 101.141912,9.9713537 104.602773,20.3111072 C108.068241,30.6477906 127.646522,45.7706011 130.682069,47.2856451 C133.709939,48.8022241 137.433359,51.1722626 137.129344,57.8418334 C136.823793,64.5098692 150.994286,72.0635994 150.994286,72.0635994 C150.994286,72.0635994 126.560972,77.1398412 77.3611561,74.9478626 C28.1582693,72.754349 0,71.5002548 0,71.5002548 L21.5282782,54.5615405" id="Fill-8"></path>
                </g>
            </g>
        </g>
    </g>
</svg>